<svg width="86" height="10" viewBox="0 0 86 10" fill="none" xmlns="http://www.w3.org/2000/svg">
<mask id="path-1-outside-1_4001_24645" maskUnits="userSpaceOnUse" x="-0.85791" y="-0.35498" width="87" height="10" fill="black">
<rect fill="white" x="-0.85791" y="-0.35498" width="87" height="10"/>
<path d="M2.56151 9.43354C1.7239 9.43354 1.11091 9.242 0.722499 8.85892C0.334087 8.47585 0.140644 7.86798 0.142126 7.03525C0.141509 6.99663 0.148716 6.95831 0.163254 6.92248C0.177792 6.8867 0.199372 6.85416 0.22676 6.82686C0.254147 6.79956 0.286725 6.77801 0.322596 6.76348C0.358509 6.749 0.396935 6.7418 0.435649 6.74243C0.474486 6.74097 0.513158 6.74775 0.549194 6.76228C0.585231 6.7768 0.617767 6.79877 0.64466 6.82673C0.672377 6.85382 0.694163 6.88632 0.708701 6.92223C0.72324 6.9581 0.730201 6.99659 0.729171 7.03525C0.729171 7.70528 0.864832 8.17562 1.13611 8.44626C1.4074 8.71694 1.88328 8.85226 2.56374 8.85226H4.56506C5.24551 8.85226 5.72136 8.71694 5.99268 8.44626C6.26396 8.17562 6.39958 7.70528 6.39958 7.03525C6.39958 6.36081 6.26396 5.88901 5.99268 5.61983C5.72136 5.35064 5.24477 5.21678 4.56283 5.21828H2.60377C1.80767 5.21828 1.22507 5.03635 0.860385 4.67474C0.495696 4.3131 0.311107 3.73628 0.311107 2.94426C0.311107 2.15223 0.493472 1.57763 0.855937 1.21378C1.2184 0.849943 1.79655 0.670237 2.59042 0.670237H4.634C5.42561 0.670237 6.0038 0.85068 6.36849 1.21157C6.73318 1.57097 6.91328 2.14557 6.91328 2.93094C6.91447 2.96946 6.90776 3.00781 6.89363 3.04366C6.87951 3.07951 6.85817 3.11211 6.83099 3.13949C6.78993 3.18104 6.73738 3.20942 6.68005 3.22097C6.62272 3.23251 6.56325 3.22671 6.50922 3.2043C6.45522 3.18189 6.40918 3.1439 6.37697 3.09519C6.34472 3.04649 6.32784 2.98929 6.32846 2.93094C6.32846 2.31123 6.20243 1.87639 5.95042 1.62643C5.69693 1.37795 5.25885 1.2515 4.634 1.2515H2.59042C1.96553 1.2515 1.52527 1.37796 1.274 1.62865C1.02269 1.87935 0.895968 2.31863 0.895968 2.94204C0.895968 3.56545 1.02269 4.00472 1.27841 4.25542C1.53416 4.50612 1.97443 4.63257 2.61266 4.63257H4.56283C5.40485 4.63257 6.01863 4.82413 6.40403 5.20717C6.78948 5.59024 6.98148 6.19815 6.98 7.03084C6.98 7.86353 6.78799 8.47139 6.40403 8.85447C6.02011 9.23755 5.40633 9.42909 4.56283 9.42909H2.56151V9.43354Z"/>
<path d="M7.72131 9.42044C7.68379 9.40742 7.64953 9.38649 7.62086 9.35906C7.5922 9.3316 7.56983 9.29831 7.55526 9.26144C7.54068 9.22457 7.53425 9.185 7.53643 9.14543C7.53862 9.10586 7.54937 9.06724 7.5679 9.0322L11.0569 0.892318C11.0792 0.823206 11.1243 0.763668 11.1849 0.723388C11.2454 0.683107 11.3179 0.664454 11.3904 0.670463H11.4327C11.5045 0.668124 11.5753 0.688251 11.6351 0.728032C11.6949 0.767813 11.7408 0.825255 11.7662 0.892318L15.2374 9.0322C15.2581 9.06682 15.2704 9.10569 15.2737 9.14584C15.2769 9.186 15.2709 9.22636 15.2561 9.26381C15.2413 9.30131 15.2181 9.33489 15.1882 9.36202C15.1584 9.38919 15.1228 9.40916 15.084 9.42044C15.0501 9.44021 15.0121 9.45194 14.973 9.45469C14.9338 9.45748 14.8946 9.45119 14.8582 9.43642C14.8219 9.4216 14.7895 9.39868 14.7634 9.36934C14.7374 9.34005 14.7185 9.30513 14.7082 9.26735L13.7275 6.96673H9.10223L8.10824 9.26735C8.09724 9.30597 8.07748 9.3415 8.05046 9.3713C8.02348 9.40105 7.99 9.42423 7.9526 9.43904C7.91521 9.45385 7.87489 9.45985 7.83477 9.45664C7.7947 9.4534 7.75587 9.441 7.72131 9.42044ZM9.3535 6.38325H13.4807L11.4304 1.58673L9.3535 6.38325Z"/>
<path d="M16.5445 9.44699C16.5049 9.45253 16.4646 9.44882 16.4267 9.43617C16.3888 9.42352 16.3545 9.4023 16.3262 9.37409C16.298 9.34592 16.2767 9.31159 16.264 9.27381C16.2513 9.23602 16.2476 9.19583 16.2532 9.15634V0.963252C16.2532 0.886171 16.2839 0.81225 16.3385 0.757746C16.3931 0.703243 16.4672 0.672621 16.5445 0.672621C16.6217 0.672621 16.6958 0.703243 16.7504 0.757746C16.8051 0.81225 16.8358 0.886171 16.8358 0.963252V8.86572H21.1853C21.2626 8.86572 21.3367 8.89635 21.3913 8.95086C21.4459 9.00537 21.4766 9.07927 21.4766 9.15634C21.4766 9.23344 21.4459 9.30734 21.3913 9.36186C21.3367 9.41637 21.2626 9.44699 21.1853 9.44699H16.5445Z"/>
<path d="M25.2035 9.44708C24.2162 9.44708 23.4994 9.22521 23.0532 8.7815C22.607 8.3378 22.3846 7.6227 22.3861 6.63617V0.963333C22.3825 0.922884 22.3875 0.88214 22.4006 0.843693C22.4136 0.805245 22.4346 0.769936 22.4621 0.740002C22.4896 0.710069 22.5231 0.686164 22.5603 0.669813C22.5976 0.653462 22.6378 0.64502 22.6785 0.64502C22.7192 0.64502 22.7595 0.653462 22.7967 0.669813C22.834 0.686164 22.8674 0.710069 22.8949 0.740002C22.9224 0.769936 22.9434 0.805245 22.9565 0.843693C22.9695 0.88214 22.9744 0.922884 22.9709 0.963333V6.63396C22.955 7.08008 23.0307 7.52479 23.1933 7.9407C23.3304 8.25836 23.5842 8.51161 23.9027 8.64843C24.3192 8.81171 24.7652 8.88724 25.2124 8.87026H26.8802C27.3272 8.88611 27.7732 8.81059 28.19 8.64843C28.5079 8.51086 28.7616 8.25786 28.8992 7.9407C29.0631 7.52508 29.1389 7.08017 29.1216 6.63396V0.963333C29.1183 0.922884 29.1232 0.88214 29.136 0.843693C29.1492 0.805245 29.1702 0.769936 29.1978 0.740002C29.2254 0.710069 29.2587 0.686164 29.2958 0.669813C29.3333 0.653462 29.3732 0.64502 29.414 0.64502C29.4548 0.64502 29.4951 0.653462 29.5322 0.669813C29.5697 0.686164 29.603 0.710069 29.6306 0.740002C29.6578 0.769936 29.6788 0.805245 29.692 0.843693C29.7052 0.88214 29.7101 0.922884 29.7064 0.963333V6.63396C29.7064 7.619 29.484 8.33409 29.0392 8.7793C28.5948 9.2245 27.8778 9.44633 26.8891 9.44488H25.2213L25.2035 9.44708Z"/>
<path d="M33.8476 9.43366C33.0099 9.43366 32.3971 9.24212 32.0087 8.85904C31.6203 8.47596 31.4267 7.8681 31.428 7.03537C31.4267 6.99663 31.4333 6.95805 31.4482 6.9221C31.4626 6.88615 31.4848 6.85369 31.5128 6.82685C31.54 6.79922 31.5725 6.77746 31.6084 6.76298C31.6442 6.74846 31.6829 6.74151 31.7216 6.74255C31.7603 6.74109 31.7991 6.74787 31.8353 6.7624C31.8711 6.77692 31.9037 6.79889 31.9308 6.82685C31.9584 6.85394 31.9803 6.88644 31.9947 6.92235C32.0091 6.95822 32.0161 6.99671 32.0153 7.03537C32.0153 7.7054 32.1508 8.17574 32.4222 8.44638C32.6936 8.71706 33.1693 8.85238 33.8496 8.85238H35.8512C36.5316 8.85238 37.0073 8.71706 37.2787 8.44638C37.5501 8.17574 37.6856 7.7054 37.6856 7.03537C37.6856 6.36093 37.5501 5.88914 37.2787 5.61995C37.0073 5.35076 36.5316 5.2169 35.8512 5.2184H33.8921C33.096 5.2184 32.5132 5.03647 32.1487 4.67487C31.7838 4.31323 31.5993 3.7364 31.5993 2.94438C31.5993 2.15236 31.7818 1.57775 32.1442 1.21391C32.5066 0.850068 33.0848 0.670363 33.8785 0.670363H35.9179C36.7095 0.670363 37.2877 0.850805 37.6522 1.21169C38.0171 1.5711 38.1971 2.1457 38.1971 2.93107C38.1983 2.96979 38.1917 3.00835 38.1769 3.04427C38.1625 3.08019 38.1407 3.11267 38.1126 3.13961C38.0851 3.16683 38.0525 3.18817 38.0167 3.20228C37.9809 3.2164 37.9421 3.22301 37.9034 3.2217C37.8651 3.22288 37.8264 3.21621 37.7906 3.2021C37.7548 3.18798 37.7218 3.16673 37.6946 3.13961C37.6674 3.11232 37.646 3.07972 37.6316 3.04385C37.6176 3.00798 37.611 2.96959 37.6123 2.93107C37.6123 2.31135 37.4862 1.87651 37.2342 1.62656C36.9809 1.37808 36.5427 1.25162 35.9179 1.25162H33.8743C33.2492 1.25162 32.8089 1.37808 32.5577 1.62878C32.3064 1.87947 32.1796 2.31875 32.1796 2.94216C32.1796 3.56557 32.3064 4.00484 32.5622 4.25554C32.818 4.50624 33.2582 4.6327 33.8966 4.6327H35.8557C36.6992 4.6327 37.3128 4.82425 37.6967 5.20729C38.0805 5.59036 38.2729 6.19827 38.2729 7.03096C38.2729 7.8629 38.0793 8.4708 37.6967 8.85459C37.3141 9.23841 36.6984 9.4292 35.8557 9.4292H33.8542L33.8476 9.43366Z"/>
<path d="M45.3974 9.4471C44.4102 9.4471 43.6932 9.22522 43.2472 8.78152C42.8007 8.33781 42.5783 7.62272 42.58 6.63619V3.48362C42.58 2.48971 42.8024 1.77016 43.2472 1.32497C43.6919 0.879783 44.404 0.661623 45.3842 0.670497H47.0654C48.0526 0.670497 48.7692 0.892352 49.2156 1.33606C49.6616 1.77977 49.884 2.49489 49.8828 3.48141V6.62953C49.8828 7.61456 49.6604 8.3297 49.2156 8.77486C48.7708 9.22006 48.0538 9.44189 47.0654 9.44044H45.3974V9.4471ZM45.3974 8.86582H47.0654C47.5122 8.88168 47.9582 8.80615 48.375 8.64399C48.693 8.50642 48.9463 8.25342 49.0842 7.93626C49.2481 7.52068 49.3239 7.07577 49.3066 6.62953V3.48584C49.3239 3.03962 49.2481 2.59469 49.0842 2.17912C48.9463 1.86195 48.693 1.60895 48.375 1.4714C47.9582 1.3081 47.5126 1.23257 47.0654 1.24954H45.3842C44.9386 1.22741 44.493 1.29844 44.0766 1.45809C43.7595 1.59436 43.5074 1.84805 43.374 2.1658C43.2113 2.58556 43.1355 3.03386 43.1516 3.48362V6.63173C43.1355 7.07789 43.2113 7.52256 43.374 7.93847C43.5116 8.25563 43.7653 8.50863 44.0832 8.6462C44.502 8.80686 44.9489 8.88155 45.3974 8.86582Z"/>
<path d="M51.9843 9.4471C51.9447 9.45264 51.9044 9.44897 51.8665 9.43632C51.8286 9.42367 51.794 9.40241 51.766 9.37424C51.7376 9.34607 51.7162 9.31174 51.7038 9.27395C51.691 9.23613 51.6873 9.19593 51.6927 9.15649V0.963365C51.6873 0.923906 51.691 0.883699 51.7038 0.845912C51.7162 0.808125 51.7376 0.77379 51.766 0.745614C51.794 0.717437 51.8286 0.696188 51.8665 0.683542C51.9044 0.670895 51.9447 0.667197 51.9843 0.672737H55.235C56.0088 0.672737 56.5916 0.867966 56.9829 1.25843C57.3745 1.6489 57.5701 2.23016 57.5701 3.00222V3.41709C57.5701 4.1847 57.3745 4.7645 56.9829 5.15644C56.5916 5.54838 56.0088 5.74508 55.235 5.74657H52.2754V9.15649C52.2808 9.19593 52.2771 9.23613 52.2647 9.27395C52.252 9.31174 52.2306 9.34607 52.2026 9.37424C52.1741 9.40241 52.1395 9.42367 52.1017 9.43632C52.0638 9.44897 52.0238 9.45264 51.9843 9.4471ZM52.2754 5.16309H55.235C55.8429 5.16309 56.2877 5.02182 56.5694 4.73932C56.8511 4.45684 56.9911 4.01314 56.9894 3.40821V2.99334C56.9894 2.38694 56.8494 1.94322 56.5694 1.66221C56.2893 1.38119 55.8445 1.24143 55.235 1.24291H52.2754V5.16309Z"/>
<path d="M61.2669 9.4625C61.2282 9.46391 61.1894 9.45717 61.1536 9.44265C61.1174 9.42808 61.0848 9.40615 61.0581 9.37819C61.0305 9.35106 61.0087 9.31856 60.9938 9.28269C60.9794 9.24682 60.9724 9.20833 60.9736 9.16963V1.23832H57.9313C57.8926 1.23892 57.8543 1.23176 57.8185 1.21725C57.7827 1.20275 57.7501 1.1812 57.7225 1.15389C57.6954 1.12657 57.6735 1.09405 57.6591 1.05825C57.6447 1.02245 57.6373 0.984101 57.6381 0.945481C57.6373 0.906827 57.6443 0.868417 57.6587 0.832575C57.6735 0.796733 57.695 0.7642 57.7225 0.736935C57.7497 0.709714 57.7827 0.68838 57.8185 0.674261C57.8543 0.660142 57.893 0.653532 57.9313 0.654843H64.6024C64.6411 0.653663 64.6798 0.660332 64.7157 0.674444C64.7515 0.688556 64.784 0.709821 64.8116 0.736935C64.8532 0.777898 64.8816 0.83034 64.8932 0.887538C64.9047 0.944736 64.8989 1.00408 64.8767 1.05796C64.854 1.11184 64.8162 1.15778 64.7671 1.18992C64.7185 1.22206 64.6609 1.23891 64.6024 1.23832H61.5585V9.17188C61.5597 9.21037 61.5531 9.24878 61.5387 9.28465C61.5247 9.32052 61.5033 9.3531 61.4761 9.3804C61.4485 9.40719 61.4155 9.42825 61.3797 9.44236C61.3439 9.45646 61.3056 9.46329 61.2669 9.4625Z"/>
<path d="M66.088 9.44698C66.0493 9.44839 66.0106 9.44161 65.9747 9.42709C65.9385 9.41257 65.906 9.3906 65.8792 9.36267C65.8516 9.33554 65.8298 9.30304 65.8149 9.26717C65.8005 9.23131 65.7935 9.19282 65.7948 9.15412V0.945481C65.7931 0.906758 65.8001 0.868189 65.8145 0.832271C65.8294 0.796351 65.8512 0.763879 65.8792 0.736935C65.9064 0.709714 65.9393 0.68838 65.9752 0.674261C66.011 0.660142 66.0497 0.653532 66.088 0.654843C66.1267 0.653663 66.165 0.660332 66.2013 0.674444C66.2371 0.688556 66.2696 0.709821 66.2972 0.736935C66.3244 0.764231 66.3458 0.79682 66.3598 0.83269C66.3742 0.868561 66.3808 0.906952 66.3796 0.945481V9.15412C66.3808 9.19265 66.3742 9.23101 66.3598 9.26688C66.3458 9.30279 66.3244 9.33538 66.2972 9.36267C66.2704 9.3906 66.2379 9.41257 66.2017 9.42709C66.1658 9.44161 66.1271 9.44839 66.088 9.44698Z"/>
<path d="M68.6189 9.4471C68.5794 9.45264 68.539 9.44897 68.5011 9.43632C68.4632 9.42367 68.429 9.40241 68.4006 9.37424C68.3726 9.34607 68.3512 9.31174 68.3384 9.27395C68.3257 9.23613 68.322 9.19593 68.3277 9.15649V0.963365C68.322 0.923906 68.3257 0.883699 68.3384 0.845912C68.3512 0.808125 68.3726 0.77379 68.4006 0.745614C68.429 0.717437 68.4632 0.696188 68.5011 0.683542C68.539 0.670895 68.5794 0.667197 68.6189 0.672737C68.6893 0.669844 68.7589 0.686586 68.8203 0.721078C68.8817 0.755569 68.9319 0.806442 68.9657 0.86797L72.4816 6.26127L72.3436 6.27458L75.8592 0.86797C75.8937 0.806945 75.9444 0.756494 76.0054 0.72208C76.0667 0.687666 76.1359 0.6706 76.2063 0.672737C76.3908 0.672737 76.4843 0.770352 76.4843 0.963365V9.15869C76.4843 9.2358 76.4534 9.3097 76.3991 9.36421C76.3443 9.41872 76.2702 9.44935 76.1928 9.44935C76.1157 9.44935 76.0416 9.41872 75.9868 9.36421C75.9325 9.3097 75.9016 9.2358 75.9016 9.15869V1.54685L76.0684 1.60231L72.7617 6.67614C72.7254 6.73535 72.6743 6.78424 72.6138 6.81816C72.5529 6.85207 72.4845 6.86988 72.4149 6.86988C72.3453 6.86988 72.2769 6.85207 72.216 6.81816C72.1554 6.78424 72.1044 6.73535 72.0681 6.67614L68.7614 1.60231L68.9146 1.67108V9.15869C68.9191 9.19822 68.9146 9.23825 68.901 9.2757C68.8878 9.31315 68.866 9.34707 68.8372 9.37486C68.8088 9.40266 68.7742 9.42363 68.7367 9.43616C68.6988 9.44868 68.6584 9.45243 68.6189 9.4471Z"/>
<path d="M77.6353 9.42044C77.5978 9.40742 77.5636 9.38649 77.5348 9.35906C77.506 9.3316 77.4837 9.29831 77.4693 9.26144C77.4545 9.22457 77.4483 9.185 77.4504 9.14543C77.4524 9.10586 77.4631 9.06724 77.4817 9.0322L80.9709 0.892318C80.9931 0.823206 81.0384 0.763668 81.0989 0.723388C81.1595 0.683107 81.232 0.664454 81.3045 0.670463H81.3465C81.4185 0.668124 81.4894 0.688251 81.5491 0.728032C81.6088 0.767813 81.6549 0.825255 81.6801 0.892318L85.1536 9.0322C85.1742 9.06682 85.1865 9.10569 85.1898 9.14584C85.1931 9.186 85.1869 9.22636 85.1721 9.26381C85.1573 9.30131 85.1342 9.33489 85.1046 9.36202C85.0745 9.38919 85.0391 9.40916 85.0004 9.42044C84.9662 9.44021 84.9283 9.45194 84.8892 9.45469C84.85 9.45748 84.8109 9.45119 84.7743 9.43642C84.738 9.4216 84.7055 9.39868 84.6795 9.36934C84.6536 9.34005 84.6346 9.30513 84.6244 9.26735L83.6437 6.96673H79.0162L78.022 9.26735C78.0113 9.30597 77.9916 9.3415 77.9644 9.3713C77.9376 9.40105 77.9038 9.42423 77.8668 9.43904C77.8293 9.45385 77.7889 9.45985 77.7486 9.45664C77.7086 9.4534 77.6699 9.441 77.6353 9.42044ZM79.2786 6.38325H83.4057L81.3555 1.58673L79.2786 6.38325Z"/>
</mask>
<path d="M2.56151 9.43354C1.7239 9.43354 1.11091 9.242 0.722499 8.85892C0.334087 8.47585 0.140644 7.86798 0.142126 7.03525C0.141509 6.99663 0.148716 6.95831 0.163254 6.92248C0.177792 6.8867 0.199372 6.85416 0.22676 6.82686C0.254147 6.79956 0.286725 6.77801 0.322596 6.76348C0.358509 6.749 0.396935 6.7418 0.435649 6.74243C0.474486 6.74097 0.513158 6.74775 0.549194 6.76228C0.585231 6.7768 0.617767 6.79877 0.64466 6.82673C0.672377 6.85382 0.694163 6.88632 0.708701 6.92223C0.72324 6.9581 0.730201 6.99659 0.729171 7.03525C0.729171 7.70528 0.864832 8.17562 1.13611 8.44626C1.4074 8.71694 1.88328 8.85226 2.56374 8.85226H4.56506C5.24551 8.85226 5.72136 8.71694 5.99268 8.44626C6.26396 8.17562 6.39958 7.70528 6.39958 7.03525C6.39958 6.36081 6.26396 5.88901 5.99268 5.61983C5.72136 5.35064 5.24477 5.21678 4.56283 5.21828H2.60377C1.80767 5.21828 1.22507 5.03635 0.860385 4.67474C0.495696 4.3131 0.311107 3.73628 0.311107 2.94426C0.311107 2.15223 0.493472 1.57763 0.855937 1.21378C1.2184 0.849943 1.79655 0.670237 2.59042 0.670237H4.634C5.42561 0.670237 6.0038 0.85068 6.36849 1.21157C6.73318 1.57097 6.91328 2.14557 6.91328 2.93094C6.91447 2.96946 6.90776 3.00781 6.89363 3.04366C6.87951 3.07951 6.85817 3.11211 6.83099 3.13949C6.78993 3.18104 6.73738 3.20942 6.68005 3.22097C6.62272 3.23251 6.56325 3.22671 6.50922 3.2043C6.45522 3.18189 6.40918 3.1439 6.37697 3.09519C6.34472 3.04649 6.32784 2.98929 6.32846 2.93094C6.32846 2.31123 6.20243 1.87639 5.95042 1.62643C5.69693 1.37795 5.25885 1.2515 4.634 1.2515H2.59042C1.96553 1.2515 1.52527 1.37796 1.274 1.62865C1.02269 1.87935 0.895968 2.31863 0.895968 2.94204C0.895968 3.56545 1.02269 4.00472 1.27841 4.25542C1.53416 4.50612 1.97443 4.63257 2.61266 4.63257H4.56283C5.40485 4.63257 6.01863 4.82413 6.40403 5.20717C6.78948 5.59024 6.98148 6.19815 6.98 7.03084C6.98 7.86353 6.78799 8.47139 6.40403 8.85447C6.02011 9.23755 5.40633 9.42909 4.56283 9.42909H2.56151V9.43354Z" fill="#383942"/>
<path d="M7.72131 9.42044C7.68379 9.40742 7.64953 9.38649 7.62086 9.35906C7.5922 9.3316 7.56983 9.29831 7.55526 9.26144C7.54068 9.22457 7.53425 9.185 7.53643 9.14543C7.53862 9.10586 7.54937 9.06724 7.5679 9.0322L11.0569 0.892318C11.0792 0.823206 11.1243 0.763668 11.1849 0.723388C11.2454 0.683107 11.3179 0.664454 11.3904 0.670463H11.4327C11.5045 0.668124 11.5753 0.688251 11.6351 0.728032C11.6949 0.767813 11.7408 0.825255 11.7662 0.892318L15.2374 9.0322C15.2581 9.06682 15.2704 9.10569 15.2737 9.14584C15.2769 9.186 15.2709 9.22636 15.2561 9.26381C15.2413 9.30131 15.2181 9.33489 15.1882 9.36202C15.1584 9.38919 15.1228 9.40916 15.084 9.42044C15.0501 9.44021 15.0121 9.45194 14.973 9.45469C14.9338 9.45748 14.8946 9.45119 14.8582 9.43642C14.8219 9.4216 14.7895 9.39868 14.7634 9.36934C14.7374 9.34005 14.7185 9.30513 14.7082 9.26735L13.7275 6.96673H9.10223L8.10824 9.26735C8.09724 9.30597 8.07748 9.3415 8.05046 9.3713C8.02348 9.40105 7.99 9.42423 7.9526 9.43904C7.91521 9.45385 7.87489 9.45985 7.83477 9.45664C7.7947 9.4534 7.75587 9.441 7.72131 9.42044ZM9.3535 6.38325H13.4807L11.4304 1.58673L9.3535 6.38325Z" fill="#383942"/>
<path d="M16.5445 9.44699C16.5049 9.45253 16.4646 9.44882 16.4267 9.43617C16.3888 9.42352 16.3545 9.4023 16.3262 9.37409C16.298 9.34592 16.2767 9.31159 16.264 9.27381C16.2513 9.23602 16.2476 9.19583 16.2532 9.15634V0.963252C16.2532 0.886171 16.2839 0.81225 16.3385 0.757746C16.3931 0.703243 16.4672 0.672621 16.5445 0.672621C16.6217 0.672621 16.6958 0.703243 16.7504 0.757746C16.8051 0.81225 16.8358 0.886171 16.8358 0.963252V8.86572H21.1853C21.2626 8.86572 21.3367 8.89635 21.3913 8.95086C21.4459 9.00537 21.4766 9.07927 21.4766 9.15634C21.4766 9.23344 21.4459 9.30734 21.3913 9.36186C21.3367 9.41637 21.2626 9.44699 21.1853 9.44699H16.5445Z" fill="#383942"/>
<path d="M25.2035 9.44708C24.2162 9.44708 23.4994 9.22521 23.0532 8.7815C22.607 8.3378 22.3846 7.6227 22.3861 6.63617V0.963333C22.3825 0.922884 22.3875 0.88214 22.4006 0.843693C22.4136 0.805245 22.4346 0.769936 22.4621 0.740002C22.4896 0.710069 22.5231 0.686164 22.5603 0.669813C22.5976 0.653462 22.6378 0.64502 22.6785 0.64502C22.7192 0.64502 22.7595 0.653462 22.7967 0.669813C22.834 0.686164 22.8674 0.710069 22.8949 0.740002C22.9224 0.769936 22.9434 0.805245 22.9565 0.843693C22.9695 0.88214 22.9744 0.922884 22.9709 0.963333V6.63396C22.955 7.08008 23.0307 7.52479 23.1933 7.9407C23.3304 8.25836 23.5842 8.51161 23.9027 8.64843C24.3192 8.81171 24.7652 8.88724 25.2124 8.87026H26.8802C27.3272 8.88611 27.7732 8.81059 28.19 8.64843C28.5079 8.51086 28.7616 8.25786 28.8992 7.9407C29.0631 7.52508 29.1389 7.08017 29.1216 6.63396V0.963333C29.1183 0.922884 29.1232 0.88214 29.136 0.843693C29.1492 0.805245 29.1702 0.769936 29.1978 0.740002C29.2254 0.710069 29.2587 0.686164 29.2958 0.669813C29.3333 0.653462 29.3732 0.64502 29.414 0.64502C29.4548 0.64502 29.4951 0.653462 29.5322 0.669813C29.5697 0.686164 29.603 0.710069 29.6306 0.740002C29.6578 0.769936 29.6788 0.805245 29.692 0.843693C29.7052 0.88214 29.7101 0.922884 29.7064 0.963333V6.63396C29.7064 7.619 29.484 8.33409 29.0392 8.7793C28.5948 9.2245 27.8778 9.44633 26.8891 9.44488H25.2213L25.2035 9.44708Z" fill="#383942"/>
<path d="M33.8476 9.43366C33.0099 9.43366 32.3971 9.24212 32.0087 8.85904C31.6203 8.47596 31.4267 7.8681 31.428 7.03537C31.4267 6.99663 31.4333 6.95805 31.4482 6.9221C31.4626 6.88615 31.4848 6.85369 31.5128 6.82685C31.54 6.79922 31.5725 6.77746 31.6084 6.76298C31.6442 6.74846 31.6829 6.74151 31.7216 6.74255C31.7603 6.74109 31.7991 6.74787 31.8353 6.7624C31.8711 6.77692 31.9037 6.79889 31.9308 6.82685C31.9584 6.85394 31.9803 6.88644 31.9947 6.92235C32.0091 6.95822 32.0161 6.99671 32.0153 7.03537C32.0153 7.7054 32.1508 8.17574 32.4222 8.44638C32.6936 8.71706 33.1693 8.85238 33.8496 8.85238H35.8512C36.5316 8.85238 37.0073 8.71706 37.2787 8.44638C37.5501 8.17574 37.6856 7.7054 37.6856 7.03537C37.6856 6.36093 37.5501 5.88914 37.2787 5.61995C37.0073 5.35076 36.5316 5.2169 35.8512 5.2184H33.8921C33.096 5.2184 32.5132 5.03647 32.1487 4.67487C31.7838 4.31323 31.5993 3.7364 31.5993 2.94438C31.5993 2.15236 31.7818 1.57775 32.1442 1.21391C32.5066 0.850068 33.0848 0.670363 33.8785 0.670363H35.9179C36.7095 0.670363 37.2877 0.850805 37.6522 1.21169C38.0171 1.5711 38.1971 2.1457 38.1971 2.93107C38.1983 2.96979 38.1917 3.00835 38.1769 3.04427C38.1625 3.08019 38.1407 3.11267 38.1126 3.13961C38.0851 3.16683 38.0525 3.18817 38.0167 3.20228C37.9809 3.2164 37.9421 3.22301 37.9034 3.2217C37.8651 3.22288 37.8264 3.21621 37.7906 3.2021C37.7548 3.18798 37.7218 3.16673 37.6946 3.13961C37.6674 3.11232 37.646 3.07972 37.6316 3.04385C37.6176 3.00798 37.611 2.96959 37.6123 2.93107C37.6123 2.31135 37.4862 1.87651 37.2342 1.62656C36.9809 1.37808 36.5427 1.25162 35.9179 1.25162H33.8743C33.2492 1.25162 32.8089 1.37808 32.5577 1.62878C32.3064 1.87947 32.1796 2.31875 32.1796 2.94216C32.1796 3.56557 32.3064 4.00484 32.5622 4.25554C32.818 4.50624 33.2582 4.6327 33.8966 4.6327H35.8557C36.6992 4.6327 37.3128 4.82425 37.6967 5.20729C38.0805 5.59036 38.2729 6.19827 38.2729 7.03096C38.2729 7.8629 38.0793 8.4708 37.6967 8.85459C37.3141 9.23841 36.6984 9.4292 35.8557 9.4292H33.8542L33.8476 9.43366Z" fill="#383942"/>
<path d="M45.3974 9.4471C44.4102 9.4471 43.6932 9.22522 43.2472 8.78152C42.8007 8.33781 42.5783 7.62272 42.58 6.63619V3.48362C42.58 2.48971 42.8024 1.77016 43.2472 1.32497C43.6919 0.879783 44.404 0.661623 45.3842 0.670497H47.0654C48.0526 0.670497 48.7692 0.892352 49.2156 1.33606C49.6616 1.77977 49.884 2.49489 49.8828 3.48141V6.62953C49.8828 7.61456 49.6604 8.3297 49.2156 8.77486C48.7708 9.22006 48.0538 9.44189 47.0654 9.44044H45.3974V9.4471ZM45.3974 8.86582H47.0654C47.5122 8.88168 47.9582 8.80615 48.375 8.64399C48.693 8.50642 48.9463 8.25342 49.0842 7.93626C49.2481 7.52068 49.3239 7.07577 49.3066 6.62953V3.48584C49.3239 3.03962 49.2481 2.59469 49.0842 2.17912C48.9463 1.86195 48.693 1.60895 48.375 1.4714C47.9582 1.3081 47.5126 1.23257 47.0654 1.24954H45.3842C44.9386 1.22741 44.493 1.29844 44.0766 1.45809C43.7595 1.59436 43.5074 1.84805 43.374 2.1658C43.2113 2.58556 43.1355 3.03386 43.1516 3.48362V6.63173C43.1355 7.07789 43.2113 7.52256 43.374 7.93847C43.5116 8.25563 43.7653 8.50863 44.0832 8.6462C44.502 8.80686 44.9489 8.88155 45.3974 8.86582Z" fill="#383942"/>
<path d="M51.9843 9.4471C51.9447 9.45264 51.9044 9.44897 51.8665 9.43632C51.8286 9.42367 51.794 9.40241 51.766 9.37424C51.7376 9.34607 51.7162 9.31174 51.7038 9.27395C51.691 9.23613 51.6873 9.19593 51.6927 9.15649V0.963365C51.6873 0.923906 51.691 0.883699 51.7038 0.845912C51.7162 0.808125 51.7376 0.77379 51.766 0.745614C51.794 0.717437 51.8286 0.696188 51.8665 0.683542C51.9044 0.670895 51.9447 0.667197 51.9843 0.672737H55.235C56.0088 0.672737 56.5916 0.867966 56.9829 1.25843C57.3745 1.6489 57.5701 2.23016 57.5701 3.00222V3.41709C57.5701 4.1847 57.3745 4.7645 56.9829 5.15644C56.5916 5.54838 56.0088 5.74508 55.235 5.74657H52.2754V9.15649C52.2808 9.19593 52.2771 9.23613 52.2647 9.27395C52.252 9.31174 52.2306 9.34607 52.2026 9.37424C52.1741 9.40241 52.1395 9.42367 52.1017 9.43632C52.0638 9.44897 52.0238 9.45264 51.9843 9.4471ZM52.2754 5.16309H55.235C55.8429 5.16309 56.2877 5.02182 56.5694 4.73932C56.8511 4.45684 56.9911 4.01314 56.9894 3.40821V2.99334C56.9894 2.38694 56.8494 1.94322 56.5694 1.66221C56.2893 1.38119 55.8445 1.24143 55.235 1.24291H52.2754V5.16309Z" fill="#383942"/>
<path d="M61.2669 9.4625C61.2282 9.46391 61.1894 9.45717 61.1536 9.44265C61.1174 9.42808 61.0848 9.40615 61.0581 9.37819C61.0305 9.35106 61.0087 9.31856 60.9938 9.28269C60.9794 9.24682 60.9724 9.20833 60.9736 9.16963V1.23832H57.9313C57.8926 1.23892 57.8543 1.23176 57.8185 1.21725C57.7827 1.20275 57.7501 1.1812 57.7225 1.15389C57.6954 1.12657 57.6735 1.09405 57.6591 1.05825C57.6447 1.02245 57.6373 0.984101 57.6381 0.945481C57.6373 0.906827 57.6443 0.868417 57.6587 0.832575C57.6735 0.796733 57.695 0.7642 57.7225 0.736935C57.7497 0.709714 57.7827 0.68838 57.8185 0.674261C57.8543 0.660142 57.893 0.653532 57.9313 0.654843H64.6024C64.6411 0.653663 64.6798 0.660332 64.7157 0.674444C64.7515 0.688556 64.784 0.709821 64.8116 0.736935C64.8532 0.777898 64.8816 0.83034 64.8932 0.887538C64.9047 0.944736 64.8989 1.00408 64.8767 1.05796C64.854 1.11184 64.8162 1.15778 64.7671 1.18992C64.7185 1.22206 64.6609 1.23891 64.6024 1.23832H61.5585V9.17188C61.5597 9.21037 61.5531 9.24878 61.5387 9.28465C61.5247 9.32052 61.5033 9.3531 61.4761 9.3804C61.4485 9.40719 61.4155 9.42825 61.3797 9.44236C61.3439 9.45646 61.3056 9.46329 61.2669 9.4625Z" fill="#383942"/>
<path d="M66.088 9.44698C66.0493 9.44839 66.0106 9.44161 65.9747 9.42709C65.9385 9.41257 65.906 9.3906 65.8792 9.36267C65.8516 9.33554 65.8298 9.30304 65.8149 9.26717C65.8005 9.23131 65.7935 9.19282 65.7948 9.15412V0.945481C65.7931 0.906758 65.8001 0.868189 65.8145 0.832271C65.8294 0.796351 65.8512 0.763879 65.8792 0.736935C65.9064 0.709714 65.9393 0.68838 65.9752 0.674261C66.011 0.660142 66.0497 0.653532 66.088 0.654843C66.1267 0.653663 66.165 0.660332 66.2013 0.674444C66.2371 0.688556 66.2696 0.709821 66.2972 0.736935C66.3244 0.764231 66.3458 0.79682 66.3598 0.83269C66.3742 0.868561 66.3808 0.906952 66.3796 0.945481V9.15412C66.3808 9.19265 66.3742 9.23101 66.3598 9.26688C66.3458 9.30279 66.3244 9.33538 66.2972 9.36267C66.2704 9.3906 66.2379 9.41257 66.2017 9.42709C66.1658 9.44161 66.1271 9.44839 66.088 9.44698Z" fill="#383942"/>
<path d="M68.6189 9.4471C68.5794 9.45264 68.539 9.44897 68.5011 9.43632C68.4632 9.42367 68.429 9.40241 68.4006 9.37424C68.3726 9.34607 68.3512 9.31174 68.3384 9.27395C68.3257 9.23613 68.322 9.19593 68.3277 9.15649V0.963365C68.322 0.923906 68.3257 0.883699 68.3384 0.845912C68.3512 0.808125 68.3726 0.77379 68.4006 0.745614C68.429 0.717437 68.4632 0.696188 68.5011 0.683542C68.539 0.670895 68.5794 0.667197 68.6189 0.672737C68.6893 0.669844 68.7589 0.686586 68.8203 0.721078C68.8817 0.755569 68.9319 0.806442 68.9657 0.86797L72.4816 6.26127L72.3436 6.27458L75.8592 0.86797C75.8937 0.806945 75.9444 0.756494 76.0054 0.72208C76.0667 0.687666 76.1359 0.6706 76.2063 0.672737C76.3908 0.672737 76.4843 0.770352 76.4843 0.963365V9.15869C76.4843 9.2358 76.4534 9.3097 76.3991 9.36421C76.3443 9.41872 76.2702 9.44935 76.1928 9.44935C76.1157 9.44935 76.0416 9.41872 75.9868 9.36421C75.9325 9.3097 75.9016 9.2358 75.9016 9.15869V1.54685L76.0684 1.60231L72.7617 6.67614C72.7254 6.73535 72.6743 6.78424 72.6138 6.81816C72.5529 6.85207 72.4845 6.86988 72.4149 6.86988C72.3453 6.86988 72.2769 6.85207 72.216 6.81816C72.1554 6.78424 72.1044 6.73535 72.0681 6.67614L68.7614 1.60231L68.9146 1.67108V9.15869C68.9191 9.19822 68.9146 9.23825 68.901 9.2757C68.8878 9.31315 68.866 9.34707 68.8372 9.37486C68.8088 9.40266 68.7742 9.42363 68.7367 9.43616C68.6988 9.44868 68.6584 9.45243 68.6189 9.4471Z" fill="#383942"/>
<path d="M77.6353 9.42044C77.5978 9.40742 77.5636 9.38649 77.5348 9.35906C77.506 9.3316 77.4837 9.29831 77.4693 9.26144C77.4545 9.22457 77.4483 9.185 77.4504 9.14543C77.4524 9.10586 77.4631 9.06724 77.4817 9.0322L80.9709 0.892318C80.9931 0.823206 81.0384 0.763668 81.0989 0.723388C81.1595 0.683107 81.232 0.664454 81.3045 0.670463H81.3465C81.4185 0.668124 81.4894 0.688251 81.5491 0.728032C81.6088 0.767813 81.6549 0.825255 81.6801 0.892318L85.1536 9.0322C85.1742 9.06682 85.1865 9.10569 85.1898 9.14584C85.1931 9.186 85.1869 9.22636 85.1721 9.26381C85.1573 9.30131 85.1342 9.33489 85.1046 9.36202C85.0745 9.38919 85.0391 9.40916 85.0004 9.42044C84.9662 9.44021 84.9283 9.45194 84.8892 9.45469C84.85 9.45748 84.8109 9.45119 84.7743 9.43642C84.738 9.4216 84.7055 9.39868 84.6795 9.36934C84.6536 9.34005 84.6346 9.30513 84.6244 9.26735L83.6437 6.96673H79.0162L78.022 9.26735C78.0113 9.30597 77.9916 9.3415 77.9644 9.3713C77.9376 9.40105 77.9038 9.42423 77.8668 9.43904C77.8293 9.45385 77.7889 9.45985 77.7486 9.45664C77.7086 9.4534 77.6699 9.441 77.6353 9.42044ZM79.2786 6.38325H83.4057L81.3555 1.58673L79.2786 6.38325Z" fill="#383942"/>
<path d="M2.56151 9.43354C1.7239 9.43354 1.11091 9.242 0.722499 8.85892C0.334087 8.47585 0.140644 7.86798 0.142126 7.03525C0.141509 6.99663 0.148716 6.95831 0.163254 6.92248C0.177792 6.8867 0.199372 6.85416 0.22676 6.82686C0.254147 6.79956 0.286725 6.77801 0.322596 6.76348C0.358509 6.749 0.396935 6.7418 0.435649 6.74243C0.474486 6.74097 0.513158 6.74775 0.549194 6.76228C0.585231 6.7768 0.617767 6.79877 0.64466 6.82673C0.672377 6.85382 0.694163 6.88632 0.708701 6.92223C0.72324 6.9581 0.730201 6.99659 0.729171 7.03525C0.729171 7.70528 0.864832 8.17562 1.13611 8.44626C1.4074 8.71694 1.88328 8.85226 2.56374 8.85226H4.56506C5.24551 8.85226 5.72136 8.71694 5.99268 8.44626C6.26396 8.17562 6.39958 7.70528 6.39958 7.03525C6.39958 6.36081 6.26396 5.88901 5.99268 5.61983C5.72136 5.35064 5.24477 5.21678 4.56283 5.21828H2.60377C1.80767 5.21828 1.22507 5.03635 0.860385 4.67474C0.495696 4.3131 0.311107 3.73628 0.311107 2.94426C0.311107 2.15223 0.493472 1.57763 0.855937 1.21378C1.2184 0.849943 1.79655 0.670237 2.59042 0.670237H4.634C5.42561 0.670237 6.0038 0.85068 6.36849 1.21157C6.73318 1.57097 6.91328 2.14557 6.91328 2.93094C6.91447 2.96946 6.90776 3.00781 6.89363 3.04366C6.87951 3.07951 6.85817 3.11211 6.83099 3.13949C6.78993 3.18104 6.73738 3.20942 6.68005 3.22097C6.62272 3.23251 6.56325 3.22671 6.50922 3.2043C6.45522 3.18189 6.40918 3.1439 6.37697 3.09519C6.34472 3.04649 6.32784 2.98929 6.32846 2.93094C6.32846 2.31123 6.20243 1.87639 5.95042 1.62643C5.69693 1.37795 5.25885 1.2515 4.634 1.2515H2.59042C1.96553 1.2515 1.52527 1.37796 1.274 1.62865C1.02269 1.87935 0.895968 2.31863 0.895968 2.94204C0.895968 3.56545 1.02269 4.00472 1.27841 4.25542C1.53416 4.50612 1.97443 4.63257 2.61266 4.63257H4.56283C5.40485 4.63257 6.01863 4.82413 6.40403 5.20717C6.78948 5.59024 6.98148 6.19815 6.98 7.03084C6.98 7.86353 6.78799 8.47139 6.40403 8.85447C6.02011 9.23755 5.40633 9.42909 4.56283 9.42909H2.56151V9.43354Z" stroke="#383942" stroke-width="0.256944" mask="url(#path-1-outside-1_4001_24645)"/>
<path d="M7.72131 9.42044C7.68379 9.40742 7.64953 9.38649 7.62086 9.35906C7.5922 9.3316 7.56983 9.29831 7.55526 9.26144C7.54068 9.22457 7.53425 9.185 7.53643 9.14543C7.53862 9.10586 7.54937 9.06724 7.5679 9.0322L11.0569 0.892318C11.0792 0.823206 11.1243 0.763668 11.1849 0.723388C11.2454 0.683107 11.3179 0.664454 11.3904 0.670463H11.4327C11.5045 0.668124 11.5753 0.688251 11.6351 0.728032C11.6949 0.767813 11.7408 0.825255 11.7662 0.892318L15.2374 9.0322C15.2581 9.06682 15.2704 9.10569 15.2737 9.14584C15.2769 9.186 15.2709 9.22636 15.2561 9.26381C15.2413 9.30131 15.2181 9.33489 15.1882 9.36202C15.1584 9.38919 15.1228 9.40916 15.084 9.42044C15.0501 9.44021 15.0121 9.45194 14.973 9.45469C14.9338 9.45748 14.8946 9.45119 14.8582 9.43642C14.8219 9.4216 14.7895 9.39868 14.7634 9.36934C14.7374 9.34005 14.7185 9.30513 14.7082 9.26735L13.7275 6.96673H9.10223L8.10824 9.26735C8.09724 9.30597 8.07748 9.3415 8.05046 9.3713C8.02348 9.40105 7.99 9.42423 7.9526 9.43904C7.91521 9.45385 7.87489 9.45985 7.83477 9.45664C7.7947 9.4534 7.75587 9.441 7.72131 9.42044ZM9.3535 6.38325H13.4807L11.4304 1.58673L9.3535 6.38325Z" stroke="#383942" stroke-width="0.256944" mask="url(#path-1-outside-1_4001_24645)"/>
<path d="M16.5445 9.44699C16.5049 9.45253 16.4646 9.44882 16.4267 9.43617C16.3888 9.42352 16.3545 9.4023 16.3262 9.37409C16.298 9.34592 16.2767 9.31159 16.264 9.27381C16.2513 9.23602 16.2476 9.19583 16.2532 9.15634V0.963252C16.2532 0.886171 16.2839 0.81225 16.3385 0.757746C16.3931 0.703243 16.4672 0.672621 16.5445 0.672621C16.6217 0.672621 16.6958 0.703243 16.7504 0.757746C16.8051 0.81225 16.8358 0.886171 16.8358 0.963252V8.86572H21.1853C21.2626 8.86572 21.3367 8.89635 21.3913 8.95086C21.4459 9.00537 21.4766 9.07927 21.4766 9.15634C21.4766 9.23344 21.4459 9.30734 21.3913 9.36186C21.3367 9.41637 21.2626 9.44699 21.1853 9.44699H16.5445Z" stroke="#383942" stroke-width="0.256944" mask="url(#path-1-outside-1_4001_24645)"/>
<path d="M25.2035 9.44708C24.2162 9.44708 23.4994 9.22521 23.0532 8.7815C22.607 8.3378 22.3846 7.6227 22.3861 6.63617V0.963333C22.3825 0.922884 22.3875 0.88214 22.4006 0.843693C22.4136 0.805245 22.4346 0.769936 22.4621 0.740002C22.4896 0.710069 22.5231 0.686164 22.5603 0.669813C22.5976 0.653462 22.6378 0.64502 22.6785 0.64502C22.7192 0.64502 22.7595 0.653462 22.7967 0.669813C22.834 0.686164 22.8674 0.710069 22.8949 0.740002C22.9224 0.769936 22.9434 0.805245 22.9565 0.843693C22.9695 0.88214 22.9744 0.922884 22.9709 0.963333V6.63396C22.955 7.08008 23.0307 7.52479 23.1933 7.9407C23.3304 8.25836 23.5842 8.51161 23.9027 8.64843C24.3192 8.81171 24.7652 8.88724 25.2124 8.87026H26.8802C27.3272 8.88611 27.7732 8.81059 28.19 8.64843C28.5079 8.51086 28.7616 8.25786 28.8992 7.9407C29.0631 7.52508 29.1389 7.08017 29.1216 6.63396V0.963333C29.1183 0.922884 29.1232 0.88214 29.136 0.843693C29.1492 0.805245 29.1702 0.769936 29.1978 0.740002C29.2254 0.710069 29.2587 0.686164 29.2958 0.669813C29.3333 0.653462 29.3732 0.64502 29.414 0.64502C29.4548 0.64502 29.4951 0.653462 29.5322 0.669813C29.5697 0.686164 29.603 0.710069 29.6306 0.740002C29.6578 0.769936 29.6788 0.805245 29.692 0.843693C29.7052 0.88214 29.7101 0.922884 29.7064 0.963333V6.63396C29.7064 7.619 29.484 8.33409 29.0392 8.7793C28.5948 9.2245 27.8778 9.44633 26.8891 9.44488H25.2213L25.2035 9.44708Z" stroke="#383942" stroke-width="0.256944" mask="url(#path-1-outside-1_4001_24645)"/>
<path d="M33.8476 9.43366C33.0099 9.43366 32.3971 9.24212 32.0087 8.85904C31.6203 8.47596 31.4267 7.8681 31.428 7.03537C31.4267 6.99663 31.4333 6.95805 31.4482 6.9221C31.4626 6.88615 31.4848 6.85369 31.5128 6.82685C31.54 6.79922 31.5725 6.77746 31.6084 6.76298C31.6442 6.74846 31.6829 6.74151 31.7216 6.74255C31.7603 6.74109 31.7991 6.74787 31.8353 6.7624C31.8711 6.77692 31.9037 6.79889 31.9308 6.82685C31.9584 6.85394 31.9803 6.88644 31.9947 6.92235C32.0091 6.95822 32.0161 6.99671 32.0153 7.03537C32.0153 7.7054 32.1508 8.17574 32.4222 8.44638C32.6936 8.71706 33.1693 8.85238 33.8496 8.85238H35.8512C36.5316 8.85238 37.0073 8.71706 37.2787 8.44638C37.5501 8.17574 37.6856 7.7054 37.6856 7.03537C37.6856 6.36093 37.5501 5.88914 37.2787 5.61995C37.0073 5.35076 36.5316 5.2169 35.8512 5.2184H33.8921C33.096 5.2184 32.5132 5.03647 32.1487 4.67487C31.7838 4.31323 31.5993 3.7364 31.5993 2.94438C31.5993 2.15236 31.7818 1.57775 32.1442 1.21391C32.5066 0.850068 33.0848 0.670363 33.8785 0.670363H35.9179C36.7095 0.670363 37.2877 0.850805 37.6522 1.21169C38.0171 1.5711 38.1971 2.1457 38.1971 2.93107C38.1983 2.96979 38.1917 3.00835 38.1769 3.04427C38.1625 3.08019 38.1407 3.11267 38.1126 3.13961C38.0851 3.16683 38.0525 3.18817 38.0167 3.20228C37.9809 3.2164 37.9421 3.22301 37.9034 3.2217C37.8651 3.22288 37.8264 3.21621 37.7906 3.2021C37.7548 3.18798 37.7218 3.16673 37.6946 3.13961C37.6674 3.11232 37.646 3.07972 37.6316 3.04385C37.6176 3.00798 37.611 2.96959 37.6123 2.93107C37.6123 2.31135 37.4862 1.87651 37.2342 1.62656C36.9809 1.37808 36.5427 1.25162 35.9179 1.25162H33.8743C33.2492 1.25162 32.8089 1.37808 32.5577 1.62878C32.3064 1.87947 32.1796 2.31875 32.1796 2.94216C32.1796 3.56557 32.3064 4.00484 32.5622 4.25554C32.818 4.50624 33.2582 4.6327 33.8966 4.6327H35.8557C36.6992 4.6327 37.3128 4.82425 37.6967 5.20729C38.0805 5.59036 38.2729 6.19827 38.2729 7.03096C38.2729 7.8629 38.0793 8.4708 37.6967 8.85459C37.3141 9.23841 36.6984 9.4292 35.8557 9.4292H33.8542L33.8476 9.43366Z" stroke="#383942" stroke-width="0.256944" mask="url(#path-1-outside-1_4001_24645)"/>
<path d="M45.3974 9.4471C44.4102 9.4471 43.6932 9.22522 43.2472 8.78152C42.8007 8.33781 42.5783 7.62272 42.58 6.63619V3.48362C42.58 2.48971 42.8024 1.77016 43.2472 1.32497C43.6919 0.879783 44.404 0.661623 45.3842 0.670497H47.0654C48.0526 0.670497 48.7692 0.892352 49.2156 1.33606C49.6616 1.77977 49.884 2.49489 49.8828 3.48141V6.62953C49.8828 7.61456 49.6604 8.3297 49.2156 8.77486C48.7708 9.22006 48.0538 9.44189 47.0654 9.44044H45.3974V9.4471ZM45.3974 8.86582H47.0654C47.5122 8.88168 47.9582 8.80615 48.375 8.64399C48.693 8.50642 48.9463 8.25342 49.0842 7.93626C49.2481 7.52068 49.3239 7.07577 49.3066 6.62953V3.48584C49.3239 3.03962 49.2481 2.59469 49.0842 2.17912C48.9463 1.86195 48.693 1.60895 48.375 1.4714C47.9582 1.3081 47.5126 1.23257 47.0654 1.24954H45.3842C44.9386 1.22741 44.493 1.29844 44.0766 1.45809C43.7595 1.59436 43.5074 1.84805 43.374 2.1658C43.2113 2.58556 43.1355 3.03386 43.1516 3.48362V6.63173C43.1355 7.07789 43.2113 7.52256 43.374 7.93847C43.5116 8.25563 43.7653 8.50863 44.0832 8.6462C44.502 8.80686 44.9489 8.88155 45.3974 8.86582Z" stroke="#383942" stroke-width="0.256944" mask="url(#path-1-outside-1_4001_24645)"/>
<path d="M51.9843 9.4471C51.9447 9.45264 51.9044 9.44897 51.8665 9.43632C51.8286 9.42367 51.794 9.40241 51.766 9.37424C51.7376 9.34607 51.7162 9.31174 51.7038 9.27395C51.691 9.23613 51.6873 9.19593 51.6927 9.15649V0.963365C51.6873 0.923906 51.691 0.883699 51.7038 0.845912C51.7162 0.808125 51.7376 0.77379 51.766 0.745614C51.794 0.717437 51.8286 0.696188 51.8665 0.683542C51.9044 0.670895 51.9447 0.667197 51.9843 0.672737H55.235C56.0088 0.672737 56.5916 0.867966 56.9829 1.25843C57.3745 1.6489 57.5701 2.23016 57.5701 3.00222V3.41709C57.5701 4.1847 57.3745 4.7645 56.9829 5.15644C56.5916 5.54838 56.0088 5.74508 55.235 5.74657H52.2754V9.15649C52.2808 9.19593 52.2771 9.23613 52.2647 9.27395C52.252 9.31174 52.2306 9.34607 52.2026 9.37424C52.1741 9.40241 52.1395 9.42367 52.1017 9.43632C52.0638 9.44897 52.0238 9.45264 51.9843 9.4471ZM52.2754 5.16309H55.235C55.8429 5.16309 56.2877 5.02182 56.5694 4.73932C56.8511 4.45684 56.9911 4.01314 56.9894 3.40821V2.99334C56.9894 2.38694 56.8494 1.94322 56.5694 1.66221C56.2893 1.38119 55.8445 1.24143 55.235 1.24291H52.2754V5.16309Z" stroke="#383942" stroke-width="0.256944" mask="url(#path-1-outside-1_4001_24645)"/>
<path d="M61.2669 9.4625C61.2282 9.46391 61.1894 9.45717 61.1536 9.44265C61.1174 9.42808 61.0848 9.40615 61.0581 9.37819C61.0305 9.35106 61.0087 9.31856 60.9938 9.28269C60.9794 9.24682 60.9724 9.20833 60.9736 9.16963V1.23832H57.9313C57.8926 1.23892 57.8543 1.23176 57.8185 1.21725C57.7827 1.20275 57.7501 1.1812 57.7225 1.15389C57.6954 1.12657 57.6735 1.09405 57.6591 1.05825C57.6447 1.02245 57.6373 0.984101 57.6381 0.945481C57.6373 0.906827 57.6443 0.868417 57.6587 0.832575C57.6735 0.796733 57.695 0.7642 57.7225 0.736935C57.7497 0.709714 57.7827 0.68838 57.8185 0.674261C57.8543 0.660142 57.893 0.653532 57.9313 0.654843H64.6024C64.6411 0.653663 64.6798 0.660332 64.7157 0.674444C64.7515 0.688556 64.784 0.709821 64.8116 0.736935C64.8532 0.777898 64.8816 0.83034 64.8932 0.887538C64.9047 0.944736 64.8989 1.00408 64.8767 1.05796C64.854 1.11184 64.8162 1.15778 64.7671 1.18992C64.7185 1.22206 64.6609 1.23891 64.6024 1.23832H61.5585V9.17188C61.5597 9.21037 61.5531 9.24878 61.5387 9.28465C61.5247 9.32052 61.5033 9.3531 61.4761 9.3804C61.4485 9.40719 61.4155 9.42825 61.3797 9.44236C61.3439 9.45646 61.3056 9.46329 61.2669 9.4625Z" stroke="#383942" stroke-width="0.256944" mask="url(#path-1-outside-1_4001_24645)"/>
<path d="M66.088 9.44698C66.0493 9.44839 66.0106 9.44161 65.9747 9.42709C65.9385 9.41257 65.906 9.3906 65.8792 9.36267C65.8516 9.33554 65.8298 9.30304 65.8149 9.26717C65.8005 9.23131 65.7935 9.19282 65.7948 9.15412V0.945481C65.7931 0.906758 65.8001 0.868189 65.8145 0.832271C65.8294 0.796351 65.8512 0.763879 65.8792 0.736935C65.9064 0.709714 65.9393 0.68838 65.9752 0.674261C66.011 0.660142 66.0497 0.653532 66.088 0.654843C66.1267 0.653663 66.165 0.660332 66.2013 0.674444C66.2371 0.688556 66.2696 0.709821 66.2972 0.736935C66.3244 0.764231 66.3458 0.79682 66.3598 0.83269C66.3742 0.868561 66.3808 0.906952 66.3796 0.945481V9.15412C66.3808 9.19265 66.3742 9.23101 66.3598 9.26688C66.3458 9.30279 66.3244 9.33538 66.2972 9.36267C66.2704 9.3906 66.2379 9.41257 66.2017 9.42709C66.1658 9.44161 66.1271 9.44839 66.088 9.44698Z" stroke="#383942" stroke-width="0.256944" mask="url(#path-1-outside-1_4001_24645)"/>
<path d="M68.6189 9.4471C68.5794 9.45264 68.539 9.44897 68.5011 9.43632C68.4632 9.42367 68.429 9.40241 68.4006 9.37424C68.3726 9.34607 68.3512 9.31174 68.3384 9.27395C68.3257 9.23613 68.322 9.19593 68.3277 9.15649V0.963365C68.322 0.923906 68.3257 0.883699 68.3384 0.845912C68.3512 0.808125 68.3726 0.77379 68.4006 0.745614C68.429 0.717437 68.4632 0.696188 68.5011 0.683542C68.539 0.670895 68.5794 0.667197 68.6189 0.672737C68.6893 0.669844 68.7589 0.686586 68.8203 0.721078C68.8817 0.755569 68.9319 0.806442 68.9657 0.86797L72.4816 6.26127L72.3436 6.27458L75.8592 0.86797C75.8937 0.806945 75.9444 0.756494 76.0054 0.72208C76.0667 0.687666 76.1359 0.6706 76.2063 0.672737C76.3908 0.672737 76.4843 0.770352 76.4843 0.963365V9.15869C76.4843 9.2358 76.4534 9.3097 76.3991 9.36421C76.3443 9.41872 76.2702 9.44935 76.1928 9.44935C76.1157 9.44935 76.0416 9.41872 75.9868 9.36421C75.9325 9.3097 75.9016 9.2358 75.9016 9.15869V1.54685L76.0684 1.60231L72.7617 6.67614C72.7254 6.73535 72.6743 6.78424 72.6138 6.81816C72.5529 6.85207 72.4845 6.86988 72.4149 6.86988C72.3453 6.86988 72.2769 6.85207 72.216 6.81816C72.1554 6.78424 72.1044 6.73535 72.0681 6.67614L68.7614 1.60231L68.9146 1.67108V9.15869C68.9191 9.19822 68.9146 9.23825 68.901 9.2757C68.8878 9.31315 68.866 9.34707 68.8372 9.37486C68.8088 9.40266 68.7742 9.42363 68.7367 9.43616C68.6988 9.44868 68.6584 9.45243 68.6189 9.4471Z" stroke="#383942" stroke-width="0.256944" mask="url(#path-1-outside-1_4001_24645)"/>
<path d="M77.6353 9.42044C77.5978 9.40742 77.5636 9.38649 77.5348 9.35906C77.506 9.3316 77.4837 9.29831 77.4693 9.26144C77.4545 9.22457 77.4483 9.185 77.4504 9.14543C77.4524 9.10586 77.4631 9.06724 77.4817 9.0322L80.9709 0.892318C80.9931 0.823206 81.0384 0.763668 81.0989 0.723388C81.1595 0.683107 81.232 0.664454 81.3045 0.670463H81.3465C81.4185 0.668124 81.4894 0.688251 81.5491 0.728032C81.6088 0.767813 81.6549 0.825255 81.6801 0.892318L85.1536 9.0322C85.1742 9.06682 85.1865 9.10569 85.1898 9.14584C85.1931 9.186 85.1869 9.22636 85.1721 9.26381C85.1573 9.30131 85.1342 9.33489 85.1046 9.36202C85.0745 9.38919 85.0391 9.40916 85.0004 9.42044C84.9662 9.44021 84.9283 9.45194 84.8892 9.45469C84.85 9.45748 84.8109 9.45119 84.7743 9.43642C84.738 9.4216 84.7055 9.39868 84.6795 9.36934C84.6536 9.34005 84.6346 9.30513 84.6244 9.26735L83.6437 6.96673H79.0162L78.022 9.26735C78.0113 9.30597 77.9916 9.3415 77.9644 9.3713C77.9376 9.40105 77.9038 9.42423 77.8668 9.43904C77.8293 9.45385 77.7889 9.45985 77.7486 9.45664C77.7086 9.4534 77.6699 9.441 77.6353 9.42044ZM79.2786 6.38325H83.4057L81.3555 1.58673L79.2786 6.38325Z" stroke="#383942" stroke-width="0.256944" mask="url(#path-1-outside-1_4001_24645)"/>
</svg>
