<svg width="10" height="10" viewBox="0 0 10 10" fill="none" xmlns="http://www.w3.org/2000/svg">
<path d="M3.42697 1.29123V0.645508H1.56972C1.23022 0.651244 0.905183 0.785042 0.658691 1.02052C0.526597 1.15787 0.423871 1.32111 0.356874 1.50012C0.289876 1.67913 0.260034 1.87011 0.269195 2.06122V6.27726H0.909552V2.06122C0.909552 1.43768 1.29905 1.32008 1.4971 1.30011C1.37428 1.53433 1.31292 1.79634 1.31885 2.06122V6.27726H1.95701V2.06122C1.95701 1.35558 2.45653 1.29789 2.61717 1.29789H3.43137L3.42697 1.29123Z" fill="#45739E"/>
<path d="M0.909888 6.27734H0.269531V8.15014C0.273018 8.49559 0.405859 8.82688 0.641422 9.07768C0.777852 9.20874 0.939347 9.31038 1.11603 9.37639C1.29272 9.44235 1.4809 9.47136 1.66907 9.46158H5.85008V8.81585H1.66907C1.05072 8.81585 0.934093 8.42309 0.91429 8.2234C1.14636 8.348 1.4062 8.41064 1.66907 8.40536H5.85008V7.75963H1.66907C0.969302 7.75963 0.912089 7.25591 0.912089 7.09392V6.27734H0.909888Z" fill="#64BFB3"/>
<path d="M5.84425 8.80423V9.44996H7.70148C8.04403 9.44642 8.37261 9.31249 8.6213 9.07497C8.75127 8.93737 8.85206 8.77451 8.91751 8.59634C8.98296 8.41817 9.01174 8.22842 9.002 8.03868V3.83594H8.36164V8.052C8.36164 8.67554 7.97214 8.79312 7.77411 8.8131C7.89768 8.57911 7.95979 8.31707 7.95454 8.052V3.83594H7.31418V8.052C7.31418 8.75762 6.81468 8.81534 6.65402 8.81534H5.83984L5.84425 8.80423Z" fill="#E3605E"/>
<path d="M8.36014 3.83648H9.0005V1.96367C8.99703 1.61825 8.86417 1.28693 8.6286 1.03613C8.49219 0.905085 8.33068 0.803454 8.154 0.737451C7.97732 0.671448 7.78911 0.642456 7.60094 0.652249H3.41992V1.29797H7.60094C8.21929 1.29797 8.33593 1.69074 8.35574 1.89044C8.12368 1.76583 7.86382 1.70319 7.60094 1.70849H3.41992V2.35421H7.60094C8.30072 2.35421 8.35794 2.85792 8.35794 3.0199V3.83648H8.36014Z" fill="#E7A202"/>
</svg>
